<?xml version="1.0" encoding="utf-8"?>
<svg xmlns="http://www.w3.org/2000/svg"
     viewBox="0 0 550 550"
     width="150" height="150"
     role="img" aria-label="Database with Product Hunt badge overlay (auto light/dark)">
  <style>
    svg { color-scheme: light dark; }
    :root{
      --db-fill: #FFFFFF;        /* light: white cylinder */
      --db-stroke: #111111;      /* light: dark outline */
      --db-stroke-w: 8;          /* light: thinner outline (px) */
      --accent: #FF6154;         /* PH-adjacent orange */
      --badge-fill: #FF6154;
      --badge-inset: #FFFFFF;
      --badge-keyline: transparent;
      --badge-keyline-w: 2.25;
    }
    @media (prefers-color-scheme: dark){
      :root{
        --db-fill: #0E0F12;      /* dark: subtle charcoal */
        --db-stroke: #FFFFFF;    /* dark: white outline */
        --db-stroke-w: 6.5;      /* dark: even lighter for elegance */
        --accent: #FF7A66;       /* slight lift on orange in dark UI */
        --badge-keyline: #FFFFFF;/* halo only in dark */
        --badge-keyline-w: 2;
      }
    }
    .db-shape{
      fill: var(--db-fill);
      stroke: var(--db-stroke);
      stroke-width: var(--db-stroke-w);
      stroke-linejoin: round;
      vector-effect: non-scaling-stroke;
      paint-order: stroke fill;
    }
    .db-accent{ fill: var(--accent); }
    .badge-fill{ fill: var(--badge-fill); }
    .badge-inset{ fill: var(--badge-inset); }
    .badge-keyline{
      fill: none;
      stroke: var(--badge-keyline);
      stroke-width: var(--badge-keyline-w);
      vector-effect: non-scaling-stroke;
    }
  </style>

  <!-- Canonical database geometry (your paths) -->
  <g transform="matrix(0.3325030207633972, 0, 0, 0.3325030207633972, 158.69566345214844, 158.69583129882812)">
    <path class="db-shape" d="M274.597 137.298c-112.094 0-225.562-23.579-225.562-68.649S162.502 0 274.597 0s225.562 23.579 225.562 68.649-113.468 68.649-225.562 68.649zm0-117.684c-125.719 0-205.947 29.038-205.947 49.035s80.228 49.035 205.947 49.035 205.947-29.038 205.947-49.035-80.228-49.035-205.947-49.035zM274.597 549.193c-112.094 0-225.562-23.579-225.562-68.649V343.246c0-5.416 4.391-9.807 9.807-9.807s9.807 4.391 9.807 9.807v137.298c0 19.997 80.228 49.035 205.947 49.035s205.947-29.038 205.947-49.035V343.246c0-5.416 4.391-9.807 9.807-9.807s9.807 4.391 9.807 9.807v137.298c.001 45.07-113.466 68.649-225.56 68.649z"/>
    <path class="db-shape" d="M274.597 411.895c-112.094 0-225.562-23.579-225.562-68.649V205.947c0-5.416 4.391-9.807 9.807-9.807s9.807 4.391 9.807 9.807v137.298c0 19.997 80.228 49.035 205.947 49.035s205.947-29.038 205.947-49.035V205.947c0-5.416 4.391-9.807 9.807-9.807s9.807 4.391 9.807 9.807v137.298c.001 45.071-113.466 68.65-225.56 68.65z"/>
    <path class="db-shape" d="M274.597 274.597c-112.094 0-225.562-23.579-225.562-68.649V68.649c0-5.416 4.391-9.807 9.807-9.807s9.807 4.391 9.807 9.807v137.298c0 19.998 80.228 49.035 205.947 49.035s205.947-29.038 205.947-49.035V68.649c0-5.416 4.391-9.807 9.807-9.807s9.807 4.391 9.807 9.807v137.298c.001 45.071-113.466 68.65-225.56 68.65z"/>
    <!-- Right-side dots: reduced size -->
    <circle class="db-accent" cx="451.123" cy="166.719" r="14"/>
    <circle class="db-accent" cx="451.123" cy="304.018" r="14"/>
    <circle class="db-accent" cx="451.123" cy="441.316" r="14"/>
  </g>

  <!-- Product Hunt badge overlay (your snippet), with subtle dark-mode halo -->
  <g fill="none" fill-rule="evenodd" transform="matrix(2.5, 0, 0, 2.5, 200, 200)">
    <circle class="badge-keyline" cx="20" cy="20" r="20"/>
    <path class="badge-fill" d="M40 20c0 11.046-8.954 20-20 20S0 31.046 0 20 8.954 0 20 0s20 8.954 20 20"/>
    <path class="badge-inset" d="M22.667 20H17v-6h5.667a3 3 0 0 1 0 6m0-10H13v20h4v-6h5.667a7 7 0 1 0 0-14"/>
  </g>
</svg>
